# xmcd
#
# Track frame offsets:
# 150
# 20852
# 36215
# 52440
# 76470
# 94737
# 108825
# 123482
# 136442
# 151990
# 165645
# 184357
# 205407
# 227752
#
# Disc length: 3307 seconds
#
#
# Revision: 0
# Processed by: cddbd v1.5.2PL0 Copyright (c) Steve Scherf et al.
# Submitted via: Nero 7, 11, 10, 0 
#
DISCID=c80ce90e
DTITLE=Pork Chop Tom and Nighttrain - On The Right Track
DYEAR=2002
DGENRE=Blues
TTITLE0=Cry Cry Baby
TTITLE1=32
TTITLE2=Cheaper To Keep Her
TTITLE3=Just Who I Am
TTITLE4=Don't Mean Maybe
TTITLE5=Man She's Gone
TTITLE6=Need My Baby
TTITLE7=Slumber Party
TTITLE8=Martha Rose
TTITLE9=Never Cheated Nobody
TTITLE10=It's My Life
TTITLE11=Kiss You In the Morning
TTITLE12=So Alone
TTITLE13=Step Back
EXTD=
EXTT0=Cry Cry Baby
EXTT1=32
EXTT2=Cheaper To Keep Her
EXTT3=Just Who I Am
EXTT4=Don't Mean Maybe
EXTT5=Man She's Gone
EXTT6=Need My Baby
EXTT7=Slumber Party
EXTT8=Martha Rose
EXTT9=Never Cheated Nobody
EXTT10=It's My Life
EXTT11=Kiss You In the Morning
EXTT12=So Alone
EXTT13=Step Back
PLAYORDER=
